<svg xmlns="http://www.w3.org/2000/svg" width="180" height="120" viewBox="0 0 180 120" role="img" aria-labelledby="title desc">
  <title id="title">Video intelligence pipeline thumbnail</title>
  <desc id="desc">Minimal pipeline diagram from RTSP to Kafka and inference to natural language query.</desc>
  <defs>
    <marker id="arrow" markerWidth="8" markerHeight="8" refX="6" refY="4" orient="auto">
      <path d="M0,0 L8,4 L0,8 z" fill="#58a6ff"/>
    </marker>
  </defs>
  <rect width="180" height="120" rx="14" fill="#1c2128"/>
  <rect x="10" y="10" width="160" height="100" rx="12" fill="#0d1117" stroke="#30363d"/>
  <text x="22" y="33" fill="#58a6ff" font-family="JetBrains Mono, monospace" font-size="11">RTSP</text>
  <rect x="53" y="20" width="52" height="22" rx="6" fill="#11263f" stroke="#58a6ff"/>
  <rect x="106" y="20" width="52" height="22" rx="6" fill="#11263f" stroke="#58a6ff"/>
  <text x="79" y="34" fill="#e6edf3" font-family="Inter, sans-serif" font-size="8.5" text-anchor="middle">Kafka + Inference</text>
  <rect x="70" y="68" width="58" height="22" rx="6" fill="#11263f" stroke="#58a6ff"/>
  <text x="99" y="82" fill="#e6edf3" font-family="Inter, sans-serif" font-size="9" text-anchor="middle">NL Query</text>
  <path d="M27 69h20" stroke="#58a6ff" stroke-width="2" marker-end="url(#arrow)"/>
  <path d="M105 31h12" stroke="#58a6ff" stroke-width="2" marker-end="url(#arrow)"/>
  <path d="M132 31v24" stroke="#58a6ff" stroke-width="2" marker-end="url(#arrow)"/>
  <path d="M88 44v18" stroke="#58a6ff" stroke-width="2" marker-end="url(#arrow)"/>
  <circle cx="22" cy="83" r="6" fill="#11263f" stroke="#58a6ff"/>
  <path d="M19 83h6M22 80v6" stroke="#58a6ff" stroke-width="1.5"/>
  <rect x="146" y="72" width="10" height="14" rx="2" fill="#11263f" stroke="#58a6ff"/>
  <path d="M148 78h6M148 81h6" stroke="#58a6ff" stroke-width="1.3"/>
</svg>